<svg width="1280" height="640" viewBox="0 0 1280 640" xmlns="http://www.w3.org/2000/svg">
  <rect width="1280" height="640" fill="#0f172a"/>
  <circle cx="640" cy="320" r="280" fill="#1e293b" opacity="0.5"/>
  <path d="M640 120L780 200V360L640 440L500 360V200L640 120Z" fill="none" stroke="#38bdf8" stroke-width="8"/>
  <path d="M640 160L740 220V340L640 400L540 340V220L640 160Z" fill="#38bdf8" opacity="0.2"/>
  <rect x="600" y="240" width="80" height="100" rx="4" fill="white" opacity="0.9"/>
  <line x1="615" y1="270" x2="665" y2="270" stroke="#0f172a" stroke-width="4"/>
  <line x1="615" y1="290" x2="665" y2="290" stroke="#0f172a" stroke-width="4"/>
  <line x1="615" y1="310" x2="640" y2="310" stroke="#0f172a" stroke-width="4"/>
  <path d="M700 240C700 240 720 220 740 240C760 260 740 280 740 280" stroke="#38bdf8" stroke-width="6" fill="none"/>
  <circle cx="740" cy="280" r="4" fill="#38bdf8"/>
  <text x="640" y="520" font-family="Arial, sans-serif" font-size="48" font-weight="bold" fill="white" text-anchor="middle">
    On-Device AI Civil Complaint
  </text>
  <text x="640" y="570" font-family="Arial, sans-serif" font-size="24" fill="#94a3b8" text-anchor="middle">
    Powered by EXAONE-Deep-7.8B
  </text>
</svg>
